[Header]
FileType HTR
DataType HTRS
FileVersion 1
NumSegments 64
NumFrames 4
DataFrameRate 30
EulerRotationOrder ZYX
CalibrationUnits mm
RotationUnits Degrees
GlobalAxisofGravity Y
BoneLengthAxis Y
ScaleFactor 1.0
[SegmentNames&Hierarchy]
Hips	GLOBAL
Spine	Hips
Spine1	Spine
Spine2	Spine1
Neck	Spine2
Head	Neck
LeftEye	Head
RightEye	Head
LeftShoulder	Spine2
LeftArm	LeftShoulder
LeftForeArm	LeftArm
LeftHand	LeftForeArm
LeftHandThumb1	LeftHand
LeftHandThumb2	LeftHandThumb1
LeftHandThumb3	LeftHandThumb2
LeftHandThumb4	LeftHandThumb3
LeftHandIndex1	LeftHand
LeftHandIndex2	LeftHandIndex1
LeftHandIndex3	LeftHandIndex2
LeftHandIndex4	LeftHandIndex3
LeftHandMiddle1	LeftHand
LeftHandMiddle2	LeftHandMiddle1
LeftHandMiddle3	LeftHandMiddle2
LeftHandMiddle4	LeftHandMiddle3
LeftHandRing1	LeftHand
LeftHandRing2	LeftHandRing1
LeftHandRing3	LeftHandRing2
LeftHandRing4	LeftHandRing3
LeftHandPinky1	LeftHand
LeftHandPinky2	LeftHandPinky1
LeftHandPinky3	LeftHandPinky2
LeftHandPinky4	LeftHandPinky3
RightShoulder	Spine2
RightArm	RightShoulder
RightForeArm	RightArm
RightHand	RightForeArm
RightHandPinky1	RightHand
RightHandPinky2	RightHandPinky1
RightHandPinky3	RightHandPinky2
RightHandPinky4	RightHandPinky3
RightHandRing1	RightHand
RightHandRing2	RightHandRing1
RightHandRing3	RightHandRing2
RightHandRing4	RightHandRing3
RightHandMiddle1	RightHand
RightHandMiddle2	RightHandMiddle1
RightHandMiddle3	RightHandMiddle2
RightHandMiddle4	RightHandMiddle3
RightHandIndex1	RightHand
RightHandIndex2	RightHandIndex1
RightHandIndex3	RightHandIndex2
RightHandIndex4	RightHandIndex3
RightHandThumb1	RightHand
RightHandThumb2	RightHandThumb1
RightHandThumb3	RightHandThumb2
RightHandThumb4	RightHandThumb3
LeftUpLeg	Hips
LeftLeg	LeftUpLeg
LeftFoot	LeftLeg
LeftToeBase	LeftFoot
RightUpLeg	Hips
RightLeg	RightUpLeg
RightFoot	RightLeg
RightToeBase	RightFoot
[BasePosition]
Hips	0	0	0	0	0	0	1
Spine	0	0	0	0	0	0	1
Spine1	0	0	0	0	0	0	1
Spine2	0	0	0	0	0	0	1
Neck	0	0	0	0	0	0	1
Head	0	0	0	0	0	0	1
LeftEye	0	0	0	0	0	0	1
RightEye	0	0	0	0	0	0	1
LeftShoulder	0	0	0	0	0	0	1
LeftArm	0	0	0	0	0	0	1
LeftForeArm	0	0	0	0	0	0	1
LeftHand	0	0	0	0	0	0	1
LeftHandThumb1	0	0	0	0	0	0	1
LeftHandThumb2	0	0	0	0	0	0	1
LeftHandThumb3	0	0	0	0	0	0	1
LeftHandThumb4	0	0	0	0	0	0	1
LeftHandIndex1	0	0	0	0	0	0	1
LeftHandIndex2	0	0	0	0	0	0	1
LeftHandIndex3	0	0	0	0	0	0	1
LeftHandIndex4	0	0	0	0	0	0	1
LeftHandMiddle1	0	0	0	0	0	0	1
LeftHandMiddle2	0	0	0	0	0	0	1
LeftHandMiddle3	0	0	0	0	0	0	1
LeftHandMiddle4	0	0	0	0	0	0	1
LeftHandRing1	0	0	0	0	0	0	1
LeftHandRing2	0	0	0	0	0	0	1
LeftHandRing3	0	0	0	0	0	0	1
LeftHandRing4	0	0	0	0	0	0	1
LeftHandPinky1	0	0	0	0	0	0	1
LeftHandPinky2	0	0	0	0	0	0	1
LeftHandPinky3	0	0	0	0	0	0	1
LeftHandPinky4	0	0	0	0	0	0	1
RightShoulder	0	0	0	0	0	0	1
RightArm	0	0	0	0	0	0	1
RightForeArm	0	0	0	0	0	0	1
RightHand	0	0	0	0	0	0	1
RightHandPinky1	0	0	0	0	0	0	1
RightHandPinky2	0	0	0	0	0	0	1
RightHandPinky3	0	0	0	0	0	0	1
RightHandPinky4	0	0	0	0	0	0	1
RightHandRing1	0	0	0	0	0	0	1
RightHandRing2	0	0	0	0	0	0	1
RightHandRing3	0	0	0	0	0	0	1
RightHandRing4	0	0	0	0	0	0	1
RightHandMiddle1	0	0	0	0	0	0	1
RightHandMiddle2	0	0	0	0	0	0	1
RightHandMiddle3	0	0	0	0	0	0	1
RightHandMiddle4	0	0	0	0	0	0	1
RightHandIndex1	0	0	0	0	0	0	1
RightHandIndex2	0	0	0	0	0	0	1
RightHandIndex3	0	0	0	0	0	0	1
RightHandIndex4	0	0	0	0	0	0	1
RightHandThumb1	0	0	0	0	0	0	1
RightHandThumb2	0	0	0	0	0	0	1
RightHandThumb3	0	0	0	0	0	0	1
RightHandThumb4	0	0	0	0	0	0	1
LeftUpLeg	0	0	0	0	0	0	1
LeftLeg	0	0	0	0	0	0	1
LeftFoot	0	0	0	0	0	0	1
LeftToeBase	0	0	0	0	0	0	1
RightUpLeg	0	0	0	0	0	0	1
RightLeg	0	0	0	0	0	0	1
RightFoot	0	0	0	0	0	0	1
RightToeBase	0	0	0	0	0	0	1
[Hips]
1	1.424354196	1033.937744	14.22167301	-3.41929245	-5.442920685	-3.420309305	1.0
2	1.433940649	1033.94397	14.24292755	-3.401772022	-5.441761017	-3.422674894	1.0
3	1.44499445	1033.960449	14.29703808	-3.387641907	-5.44833374	-3.423649073	1.0
4	1.458668828	1033.984009	14.37601471	-3.377428055	-5.461025238	-3.423468828	1.0
[Spine]
1	0	101.8159943	1.315000057	3.367688656	1.381721139	2.811736584	1.0
2	0	101.8159943	1.315000057	3.36380744	1.376629353	2.809890032	1.0
3	0	101.8159943	1.315000057	3.354905844	1.364780307	2.805003881	1.0
4	0	101.8159943	1.315000057	3.341994286	1.347483397	2.796943188	1.0
[Spine1]
1	0	100.8349991	-10.00800037	1.160682201	0.3080507219	1.55933094	1.0
2	0	100.8349991	-10.00800037	1.159412861	0.3059144318	1.558593273	1.0
3	0	100.8349991	-10.00800037	1.156513453	0.3010026813	1.556893945	1.0
4	0	100.8349991	-10.00800037	1.152323842	0.2938465476	1.55441153	1.0
[Spine2]
1	0	91	-13.73399925	1.135434508	0.3307676911	1.562716365	1.0
2	0	91	-13.73399925	1.134164214	0.3286349773	1.561990142	1.0
3	0	91	-13.73399925	1.131262302	0.3237334192	1.560317636	1.0
4	0	91	-13.73399925	1.12706995	0.3165871501	1.557874203	1.0
[Neck]
1	0	166.7169952	-25.16200066	5.625517368	-0.1231562868	0.4447516203	1.0
2	0	166.7169952	-25.16200066	5.625957966	-0.1229503527	0.4458501339	1.0
3	0	166.7169952	-25.16200066	5.626908779	-0.1224587709	0.4484064281	1.0
4	0	166.7169952	-25.16200066	5.62816	-0.1217003316	0.4522049427	1.0
[Head]
1	0	96.17900085	16.84999847	-7.56739521	1.353143334	-0.2609961331	1.0
2	0	96.17900085	16.84999847	-7.564612389	1.35296154	-0.2629472911	1.0
3	0	96.17900085	16.84999847	-7.558804989	1.352559566	-0.2670655251	1.0
4	0	96.17900085	16.84999847	-7.551683903	1.351999879	-0.2723165751	1.0
[LeftEye]
1	30.6760006	64.09500122	92.83599854	0	0	0	1.0
2	30.6760006	64.09500122	92.83599854	0	0	0	1.0
3	30.6760006	64.09500122	92.83599854	0	0	0	1.0
4	30.6760006	64.09500122	92.83599854	0	0	0	1.0
[RightEye]
1	-30.6760006	64.09500122	92.83499908	0	0	0	1.0
2	-30.6760006	64.09500122	92.83499908	0	0	0	1.0
3	-30.6760006	64.09500122	92.83499908	0	0	0	1.0
4	-30.6760006	64.09500122	92.83499908	0	0	0	1.0
[LeftShoulder]
1	45.70400238	109.4599991	-26.28000069	4.903663635	-16.7910614	-13.20455551	1.0
2	45.70400238	109.4599991	-26.28000069	4.902622223	-16.79648018	-13.19704914	1.0
3	45.70400238	109.4599991	-26.28000069	4.900217533	-16.8085289	-13.17991924	1.0
4	45.70400238	109.4599991	-26.28000069	4.896704197	-16.82522964	-13.15520096	1.0
[LeftArm]
1	105.923996	-5.24600029	-22.32099915	20.12804031	-3.088282824	-71.00371552	1.0
2	105.923996	-5.24600029	-22.32099915	20.13932037	-3.079515219	-71.00865936	1.0
3	105.923996	-5.24600029	-22.32099915	20.16482162	-3.059257507	-71.01993561	1.0
4	105.923996	-5.24600029	-22.32099915	20.20114708	-3.029440403	-71.0362854	1.0
[LeftForeArm]
1	278.414978	-0.0009999999311	0	-1.126158531e-05	-1.459359646	-0.0002083497384	1.0
2	278.414978	-0.0009999999311	0	7.56094505e-06	-1.456184506	-0.0002285505325	1.0
3	278.414978	-0.0009999999311	0	4.080940926e-06	-1.448998451	-0.0002200123708	1.0
4	278.414978	-0.0009999999311	0	6.870359215e-08	-1.438794494	-0.0002098777913	1.0
[LeftHand]
1	283.2879944	0	0	-32.95537949	-4.523304939	-4.439630508	1.0
2	283.2879944	0	0	-32.95278931	-4.517419338	-4.443129539	1.0
3	283.2879944	0	0	-32.94688416	-4.504064083	-4.451575756	1.0
4	283.2879944	0	0	-32.93828583	-4.48502636	-4.464840412	1.0
[LeftHandThumb1]
1	24.6609993	-15.75	26.8239994	-0.4889889657	2.201390743	4.818541527	1.0
2	24.6609993	-15.75	26.8239994	-0.4889889657	2.201390743	4.818541527	1.0
3	24.6609993	-15.75	26.8239994	-0.4889889657	2.201390743	4.818541527	1.0
4	24.6609993	-15.75	26.8239994	-0.4889889657	2.201390743	4.818541527	1.0
[LeftHandThumb2]
1	32.29800034	-18.64699936	18.64699936	19.88581276	19.96446037	23.26738167	1.0
2	32.29800034	-18.64699936	18.64699936	19.88581276	19.96446037	23.26738167	1.0
3	32.29800034	-18.64699936	18.64699936	19.88581276	19.96446037	23.26738167	1.0
4	32.29800034	-18.64699936	18.64699936	19.88581276	19.96446037	23.26738167	1.0
[LeftHandThumb3]
1	26.52600098	-15.31499958	15.31499958	-13.14535904	5.551738262	7.967928886	1.0
2	26.52600098	-15.31499958	15.31499958	-13.14535904	5.551738262	7.967928886	1.0
3	26.52600098	-15.31499958	15.31499958	-13.14535904	5.551738262	7.967928886	1.0
4	26.52600098	-15.31499958	15.31499958	-13.14535904	5.551738262	7.967928886	1.0
[LeftHandThumb4]
1	19.54599953	-11.28499985	11.28499985	0	0	0	1.0
2	19.54599953	-11.28499985	11.28499985	0	0	0	1.0
3	19.54599953	-11.28499985	11.28499985	0	0	0	1.0
4	19.54599953	-11.28499985	11.28499985	0	0	0	1.0
[LeftHandIndex1]
1	91.09299469	-5.170999527	22.60099792	0.1480516791	-0.9618676901	-7.594518185	1.0
2	91.09299469	-5.170999527	22.60099792	0.1480516791	-0.9618676901	-7.594518185	1.0
3	91.09299469	-5.170999527	22.60099792	0.1480516791	-0.9618676901	-7.594518185	1.0
4	91.09299469	-5.170999527	22.60099792	0.1480516791	-0.9618676901	-7.594518185	1.0
[LeftHandIndex2]
1	36.76399994	0	0	-0.2667043209	1.745171905	-17.37646866	1.0
2	36.76399994	0	0	-0.2667043209	1.745171905	-17.37646866	1.0
3	36.76399994	0	0	-0.2667043209	1.745171905	-17.37646866	1.0
4	36.76399994	0	0	-0.2667043209	1.745171905	-17.37646866	1.0
[LeftHandIndex3]
1	28.83100128	0	0	-0.05742863193	0.817338407	-8.038370132	1.0
2	28.83100128	0	0	-0.05742863193	0.817338407	-8.038370132	1.0
3	28.83100128	0	0	-0.05742863193	0.817338407	-8.038370132	1.0
4	28.83100128	0	0	-0.05742863193	0.817338407	-8.038370132	1.0
[LeftHandIndex4]
1	23.92700005	0	0	0	0	0	1.0
2	23.92700005	0	0	0	0	0	1.0
3	23.92700005	0	0	0	0	0	1.0
4	23.92700005	0	0	0	0	0	1.0
[LeftHandMiddle1]
1	95.33399963	0	0	-0.7942916155	2.538622379	-15.71737862	1.0
2	95.33399963	0	0	-0.7942916155	2.538622379	-15.71737862	1.0
3	95.33399963	0	0	-0.7942916155	2.538622379	-15.71737862	1.0
4	95.33399963	0	0	-0.7942916155	2.538622379	-15.71737862	1.0
[LeftHandMiddle2]
1	36.98199844	0	0	-0.267610997	1.748071074	-17.40625954	1.0
2	36.98199844	0	0	-0.267610997	1.748071074	-17.40625954	1.0
3	36.98199844	0	0	-0.267610997	1.748071074	-17.40625954	1.0
4	36.98199844	0	0	-0.267610997	1.748071074	-17.40625954	1.0
[LeftHandMiddle3]
1	29.50900078	0	0	-0.2992140949	1.84580946	-18.41413307	1.0
2	29.50900078	0	0	-0.2992140949	1.84580946	-18.41413307	1.0
3	29.50900078	0	0	-0.2992140949	1.84580946	-18.41413307	1.0
4	29.50900078	0	0	-0.2992140949	1.84580946	-18.41413307	1.0
[LeftHandMiddle4]
1	28.3390007	0	0	0	0	0	1.0
2	28.3390007	0	0	0	0	0	1.0
3	28.3390007	0	0	0	0	0	1.0
4	28.3390007	0	0	0	0	0	1.0
[LeftHandRing1]
1	91.04499817	-0.4390000105	-18.65100098	-1.184956431	3.436642885	-21.16632462	1.0
2	91.04499817	-0.4390000105	-18.65100098	-1.184956431	3.436642885	-21.16632462	1.0
3	91.04499817	-0.4390000105	-18.65100098	-1.184956431	3.436642885	-21.16632462	1.0
4	91.04499817	-0.4390000105	-18.65100098	-1.184956431	3.436642885	-21.16632462	1.0
[LeftHandRing2]
1	31.54000092	0	0	-0.3849357069	2.085560799	-20.91281319	1.0
2	31.54000092	0	0	-0.3849357069	2.085560799	-20.91281319	1.0
3	31.54000092	0	0	-0.3849357069	2.085560799	-20.91281319	1.0
4	31.54000092	0	0	-0.3849357069	2.085560799	-20.91281319	1.0
[LeftHandRing3]
1	29.37700081	0	0	-0.2818065584	1.792707562	-17.86576271	1.0
2	29.37700081	0	0	-0.2818065584	1.792707562	-17.86576271	1.0
3	29.37700081	0	0	-0.2818065584	1.792707562	-17.86576271	1.0
4	29.37700081	0	0	-0.2818065584	1.792707562	-17.86576271	1.0
[LeftHandRing4]
1	26.47500038	0	0	0	0	0	1.0
2	26.47500038	0	0	0	0	0	1.0
3	26.47500038	0	0	0	0	0	1.0
4	26.47500038	0	0	0	0	0	1.0
[LeftHandPinky1]
1	80.77799988	-4.887000084	-38.06099701	-1.708467126	5.355370045	-27.1653862	1.0
2	80.77799988	-4.887000084	-38.06099701	-1.708467126	5.355370045	-27.1653862	1.0
3	80.77799988	-4.887000084	-38.06099701	-1.708467126	5.355370045	-27.1653862	1.0
4	80.77799988	-4.887000084	-38.06099701	-1.708467126	5.355370045	-27.1653862	1.0
[LeftHandPinky2]
1	36	0	0	-0.2676221728	1.748113751	-17.40663528	1.0
2	36	0	0	-0.2676221728	1.748113751	-17.40663528	1.0
3	36	0	0	-0.2676221728	1.748113751	-17.40663528	1.0
4	36	0	0	-0.2676221728	1.748113751	-17.40663528	1.0
[LeftHandPinky3]
1	21.14200211	0	0	-0.2408525199	1.660349369	-16.50663185	1.0
2	21.14200211	0	0	-0.2408525199	1.660349369	-16.50663185	1.0
3	21.14200211	0	0	-0.2408525199	1.660349369	-16.50663185	1.0
4	21.14200211	0	0	-0.2408525199	1.660349369	-16.50663185	1.0
[LeftHandPinky4]
1	19.75699997	0	0	0	0	0	1.0
2	19.75699997	0	0	0	0	0	1.0
3	19.75699997	0	0	0	0	0	1.0
4	19.75699997	0	0	0	0	0	1.0
[RightShoulder]
1	-45.70000076	109.4620056	-26.28000069	5.183749199	14.5102272	15.52840233	1.0
2	-45.70000076	109.4620056	-26.28000069	5.182290554	14.51527023	15.51683331	1.0
3	-45.70000076	109.4620056	-26.28000069	5.178985596	14.52596092	15.49101257	1.0
4	-45.70000076	109.4620056	-26.28000069	5.174261093	14.53971004	15.45493317	1.0
[RightArm]
1	-105.9280014	-5.248000145	-22.32099915	30.23853874	2.22094059	62.62535477	1.0
2	-105.9280014	-5.248000145	-22.32099915	30.24235344	2.220451593	62.62038422	1.0
3	-105.9280014	-5.248000145	-22.32099915	30.25104523	2.219587803	62.60887909	1.0
4	-105.9280014	-5.248000145	-22.32099915	30.26362991	2.21889019	62.59190369	1.0
[RightForeArm]
1	-278.414978	0	0	9.730156307e-07	6.69354248	1.08053564e-05	1.0
2	-278.414978	0	0	-2.525560603e-06	6.689144611	1.940751281e-05	1.0
3	-278.414978	0	0	-4.246513072e-06	6.679474831	-6.896583272e-06	1.0
4	-278.414978	0	0	-2.133093176e-06	6.666324615	-1.389911631e-05	1.0
[RightHand]
1	-283.2879944	0	0.0009999999311	-20.07678413	1.855686188	6.545364857	1.0
2	-283.2879944	0	0.0009999999311	-20.06759262	1.854672909	6.548328876	1.0
3	-283.2879944	0	0.0009999999311	-20.04717064	1.852693439	6.554907322	1.0
4	-283.2879944	0	0.0009999999311	-20.01880264	1.850486636	6.563971043	1.0
[RightHandPinky1]
1	-80.76699829	-4.885000229	-38.06000137	-1.507175922	-4.696118355	26.50587463	1.0
2	-80.76699829	-4.885000229	-38.06000137	-1.507175922	-4.696118355	26.50587463	1.0
3	-80.76699829	-4.885000229	-38.06000137	-1.507175922	-4.696118355	26.50587463	1.0
4	-80.76699829	-4.885000229	-38.06000137	-1.507175922	-4.696118355	26.50587463	1.0
[RightHandPinky2]
1	-36	0	0.0009999999311	-0.2127676606	-1.388874292	17.43785858	1.0
2	-36	0	0.0009999999311	-0.2127676606	-1.388874292	17.43785858	1.0
3	-36	0	0.0009999999311	-0.2127676606	-1.388874292	17.43785858	1.0
4	-36	0	0.0009999999311	-0.2127676606	-1.388874292	17.43785858	1.0
[RightHandPinky3]
1	-21.14200211	0	0	-0.1919144988	-1.32059598	16.53641129	1.0
2	-21.14200211	0	0	-0.1919144988	-1.32059598	16.53641129	1.0
3	-21.14200211	0	0	-0.1919144988	-1.32059598	16.53641129	1.0
4	-21.14200211	0	0	-0.1919144988	-1.32059598	16.53641129	1.0
[RightHandPinky4]
1	-19.75699997	0	0	0	0	0	1.0
2	-19.75699997	0	0	0	0	0	1.0
3	-19.75699997	0	0	0	0	0	1.0
4	-19.75699997	0	0	0	0	0	1.0
[RightHandRing1]
1	-91.03599548	-0.4390000105	-18.65100098	-1.045235753	-2.883111477	20.47788429	1.0
2	-91.03599548	-0.4390000105	-18.65100098	-1.045235753	-2.883111477	20.47788429	1.0
3	-91.03599548	-0.4390000105	-18.65100098	-1.045235753	-2.883111477	20.47788429	1.0
4	-91.03599548	-0.4390000105	-18.65100098	-1.045235753	-2.883111477	20.47788429	1.0
[RightHandRing2]
1	-31.54000092	0	0	-0.3066971898	-1.658752441	20.94926834	1.0
2	-31.54000092	0	0	-0.3066971898	-1.658752441	20.94926834	1.0
3	-31.54000092	0	0	-0.3066971898	-1.658752441	20.94926834	1.0
4	-31.54000092	0	0	-0.3066971898	-1.658752441	20.94926834	1.0
[RightHandRing3]
1	-29.37700081	0	0	-0.2245407403	-1.425854325	17.89771652	1.0
2	-29.37700081	0	0	-0.2245407403	-1.425854325	17.89771652	1.0
3	-29.37700081	0	0	-0.2245407403	-1.425854325	17.89771652	1.0
4	-29.37700081	0	0	-0.2245407403	-1.425854325	17.89771652	1.0
[RightHandRing4]
1	-26.47500038	0	0	0	0	0	1.0
2	-26.47500038	0	0	0	0	0	1.0
3	-26.47500038	0	0	0	0	0	1.0
4	-26.47500038	0	0	0	0	0	1.0
[RightHandMiddle1]
1	-95.32500458	0	0	-0.7017197609	-2.087752104	15.0152874	1.0
2	-95.32500458	0	0	-0.7017197609	-2.087752104	15.0152874	1.0
3	-95.32500458	0	0	-0.7017197609	-2.087752104	15.0152874	1.0
4	-95.32500458	0	0	-0.7017197609	-2.087752104	15.0152874	1.0
[RightHandMiddle2]
1	-36.98199844	0	0	-0.213228479	-1.390354872	17.43750381	1.0
2	-36.98199844	0	0	-0.213228479	-1.390354872	17.43750381	1.0
3	-36.98199844	0	0	-0.213228479	-1.390354872	17.43750381	1.0
4	-36.98199844	0	0	-0.213228479	-1.390354872	17.43750381	1.0
[RightHandMiddle3]
1	-29.50900078	0	0	-0.2384106964	-1.470119596	18.44692802	1.0
2	-29.50900078	0	0	-0.2384106964	-1.470119596	18.44692802	1.0
3	-29.50900078	0	0	-0.2384106964	-1.470119596	18.44692802	1.0
4	-29.50900078	0	0	-0.2384106964	-1.470119596	18.44692802	1.0
[RightHandMiddle4]
1	-28.3390007	0	0.0009999999311	0	0	0	1.0
2	-28.3390007	0	0.0009999999311	0	0	0	1.0
3	-28.3390007	0	0.0009999999311	0	0	0	1.0
4	-28.3390007	0	0.0009999999311	0	0	0	1.0
[RightHandIndex1]
1	-91.08300018	-5.167999744	22.60099792	0.1884763837	1.25192976	6.825599194	1.0
2	-91.08300018	-5.167999744	22.60099792	0.1884763837	1.25192976	6.825599194	1.0
3	-91.08300018	-5.167999744	22.60099792	0.1884763837	1.25192976	6.825599194	1.0
4	-91.08300018	-5.167999744	22.60099792	0.1884763837	1.25192976	6.825599194	1.0
[RightHandIndex2]
1	-36.76399994	0	0	-0.2125098109	-1.388050556	17.40767097	1.0
2	-36.76399994	0	0	-0.2125098109	-1.388050556	17.40767097	1.0
3	-36.76399994	0	0	-0.2125098109	-1.388050556	17.40767097	1.0
4	-36.76399994	0	0	-0.2125098109	-1.388050556	17.40767097	1.0
[RightHandIndex3]
1	-28.83100128	0	0	-0.04576345533	-0.650116384	8.053516388	1.0
2	-28.83100128	0	0	-0.04576345533	-0.650116384	8.053516388	1.0
3	-28.83100128	0	0	-0.04576345533	-0.650116384	8.053516388	1.0
4	-28.83100128	0	0	-0.04576345533	-0.650116384	8.053516388	1.0
[RightHandIndex4]
1	-23.92700005	0	0	0	0	0	1.0
2	-23.92700005	0	0	0	0	0	1.0
3	-23.92700005	0	0	0	0	0	1.0
4	-23.92700005	0	0	0	0	0	1.0
[RightHandThumb1]
1	-24.64799881	-15.72700024	26.82600021	-1.658462524	-0.2891407609	-4.221328735	1.0
2	-24.64799881	-15.72700024	26.82600021	-1.658462524	-0.2891407609	-4.221328735	1.0
3	-24.64799881	-15.72700024	26.82600021	-1.658462524	-0.2891407609	-4.221328735	1.0
4	-24.64799881	-15.72700024	26.82600021	-1.658462524	-0.2891407609	-4.221328735	1.0
[RightHandThumb2]
1	-32.29800034	-18.64699936	18.64699936	22.25259209	-23.88967514	-24.282444	1.0
2	-32.29800034	-18.64699936	18.64699936	22.25259209	-23.88967514	-24.282444	1.0
3	-32.29800034	-18.64699936	18.64699936	22.25259209	-23.88967514	-24.282444	1.0
4	-32.29800034	-18.64699936	18.64699936	22.25259209	-23.88967514	-24.282444	1.0
[RightHandThumb3]
1	-26.52600098	-15.31399918	15.31399918	-14.47830296	-6.743862152	-11.36570263	1.0
2	-26.52600098	-15.31399918	15.31399918	-14.47830296	-6.743862152	-11.36570263	1.0
3	-26.52600098	-15.31399918	15.31399918	-14.47830296	-6.743862152	-11.36570263	1.0
4	-26.52600098	-15.31399918	15.31399918	-14.47830296	-6.743862152	-11.36570263	1.0
[RightHandThumb4]
1	-19.54599953	-11.28499985	11.28499985	0	0	0	1.0
2	-19.54599953	-11.28499985	11.28499985	0	0	0	1.0
3	-19.54599953	-11.28499985	11.28499985	0	0	0	1.0
4	-19.54599953	-11.28499985	11.28499985	0	0	0	1.0
[LeftUpLeg]
1	82.07800293	-67.51699829	-15.99599934	-8.354233742	16.22592735	7.738527775	1.0
2	82.07800293	-67.51699829	-15.99599934	-8.37352562	16.21636391	7.735814095	1.0
3	82.07800293	-67.51699829	-15.99599934	-8.382444382	16.20881271	7.734138012	1.0
4	82.07800293	-67.51699829	-15.99599934	-8.380840302	16.20134163	7.733057499	1.0
[LeftLeg]
1	0	-443.7049866	2.845999956	12.30705261	1.101727247	4.508135319	1.0
2	0	-443.7049866	2.845999956	12.3095417	1.106665015	4.509463787	1.0
3	0	-443.7049866	2.845999956	12.30713177	1.118865371	4.511472225	1.0
4	0	-443.7049866	2.845999956	12.29897213	1.136457682	4.515592575	1.0
[LeftFoot]
1	0	-444.2789917	-29.8219986	1.188154936	0.6678305864	-7.099812031	1.0
2	0	-444.2789917	-29.8219986	1.192595482	0.6679140925	-7.09972477	1.0
3	0	-444.2789917	-29.8219986	1.197751522	0.6678075194	-7.098414898	1.0
4	0	-444.2789917	-29.8219986	1.202612996	0.6681233644	-7.100598812	1.0
[LeftToeBase]
1	0	-87.28699493	107.1060028	-4.928527355	7.485266906e-06	2.413509264e-06	1.0
2	0	-87.28699493	107.1060028	-4.93351078	1.147986313e-05	9.570031523e-08	1.0
3	0	-87.28699493	107.1060028	-4.941022873	-2.243345989e-07	2.864403086e-06	1.0
4	0	-87.28699493	107.1060028	-4.9459095	-1.0062e-05	3.793251381e-06	1.0
[RightUpLeg]
1	-82.07800293	-67.51699829	-15.99599934	-0.02402432822	-10.40827656	3.445924044	1.0
2	-82.07800293	-67.51699829	-15.99599934	-0.03331544995	-10.403862	3.451445103	1.0
3	-82.07800293	-67.51699829	-15.99599934	-0.03234128281	-10.40056801	3.454851866	1.0
4	-82.07800293	-67.51699829	-15.99599934	-0.02261108346	-10.40205002	3.453567028	1.0
[RightLeg]
1	0	-443.7049866	2.861999989	8.048631668	-9.218082428	-4.558503628	1.0
2	0	-443.7049866	2.861999989	8.032061577	-9.218946457	-4.55653286	1.0
3	0	-443.7049866	2.861999989	8.00478363	-9.221723557	-4.554175854	1.0
4	0	-443.7049866	2.861999989	7.971449375	-9.224581718	-4.548139572	1.0
[RightFoot]
1	0	-444.2770081	-29.83799934	-3.77488184	-1.43788588	3.300824881	1.0
2	0	-444.2770081	-29.83799934	-3.766754389	-1.440872908	3.300394297	1.0
3	0	-444.2770081	-29.83799934	-3.75430274	-1.440409064	3.300102234	1.0
4	0	-444.2770081	-29.83799934	-3.740015745	-1.429630876	3.298500538	1.0
[RightToeBase]
1	0	-87.28699493	107.1060028	-7.282876968	-7.719811947e-06	8.658334991e-07	1.0
2	0	-87.28699493	107.1060028	-7.277129173	1.658005749e-05	-7.167047897e-07	1.0
3	0	-87.28699493	107.1060028	-7.269487858	1.52919506e-06	6.681594868e-07	1.0
4	0	-87.28699493	107.1060028	-7.263987064	-5.541317933e-06	-1.339993805e-08	1.0
[EndOfFile]
